<svg id="logo-home" xmlns="http://www.w3.org/2000/svg" xmlns:xlink="http://www.w3.org/1999/xlink" width="310.553" height="211.643" viewBox="0 0 310.553 211.643">
  <defs>
    <clipPath id="clip-path">
      <rect id="Rectangle_1803" data-name="Rectangle 1803" width="310.553" height="211.643" fill="none"/>
    </clipPath>
  </defs>
  <path id="Tracé_2423" data-name="Tracé 2423" d="M19.18,183.518h.239l4.732,10.968H14.323Zm-.42-16.961L0,206.833H8.871l2.756-6.236H26.789l2.7,6.236h9.05L20.076,166.557Z" transform="translate(0 4.089)" fill="#fff"/>
  <g id="Groupe_5574" data-name="Groupe 5574">
    <g id="Groupe_5573" data-name="Groupe 5573" clip-path="url(#clip-path)">
      <path id="Tracé_2424" data-name="Tracé 2424" d="M76.961,205.217a28.621,28.621,0,0,1-11.508,2.338c-13.663,0-21.158-8.812-21.158-20.319,0-11.327,8.334-20.739,21.4-20.739a30.062,30.062,0,0,1,10.01,1.621v7.492a21.311,21.311,0,0,0-8.75-1.861c-7.314,0-13.607,4.675-13.607,13.487,0,8.272,5.158,13.067,13.126,13.067A23.786,23.786,0,0,0,76.9,197.665Z" transform="translate(1.088 4.088)" fill="#fff"/>
      <path id="Tracé_2425" data-name="Tracé 2425" d="M111.29,200.6H96.128l-2.758,6.236H84.5l18.759-40.276h1.318l18.458,40.276h-9.05Zm-12.467-6.111h9.829l-4.733-10.968h-.239Z" transform="translate(2.075 4.089)" fill="#fff"/>
      <path id="Tracé_2426" data-name="Tracé 2426" d="M132.426,206.816V167.26h14.5c13.425,0,20.5,8.511,20.5,19.657,0,10.968-6.713,19.9-19.657,19.9Zm14.742-32.666H141.3v25.773h6.231c6.593,0,11.149-4.313,11.149-13.006,0-7.552-3.717-12.767-11.508-12.767" transform="translate(3.251 4.107)" fill="#fff"/>
      <path id="Tracé_2427" data-name="Tracé 2427" d="M206.992,206.816H179.063V167.26h26.789v6.89H187.994V182.9h16v6.651h-16v10.367h19Z" transform="translate(4.396 4.107)" fill="#fff"/>
      <path id="Tracé_2428" data-name="Tracé 2428" d="M237.988,199.518l-11.026-12.047a.218.218,0,0,1-.18.061v19.3h-8.569V166.618h1.317c6.354,7.49,12.766,14.681,19.117,22.113l19.06-22.113h1.259v40.214h-8.631v-19.3a.351.351,0,0,0-.239-.061l-10.787,12.047Z" transform="translate(5.358 4.091)" fill="#fff"/>
      <path id="Tracé_2429" data-name="Tracé 2429" d="M286.648,183.921l7.791-16.66h9.528L290.78,191.172v15.644h-8.927V191.172L268.247,167.26h9.647l8.511,16.66Z" transform="translate(6.586 4.107)" fill="#fff"/>
      <path id="Tracé_2430" data-name="Tracé 2430" d="M61.518,43.887,97.226.026H6.133v22.3h43.49L25.276,51.137V66.006a35.67,35.67,0,0,1,15.613-3.719c14.5,0,25.649,10.224,25.649,23.79,0,13.94-12.082,23.6-24.347,23.6-9.852,0-18.773-5.39-24.163-13.01L0,111.727c11.522,13.01,26.948,20.26,43.118,20.26,26.95,0,48.509-18.4,48.509-45.909,0-19.7-12.266-35.311-30.11-42.19" transform="translate(0 0.001)" fill="#fff"/>
      <path id="Tracé_2431" data-name="Tracé 2431" d="M225.7,43.128,208.679,10.322,191.654,43.128l17.025,32.806,11.783,22.705,17.025,32.806,17.025-32.806L237.487,65.834Z" transform="translate(4.706 0.253)" fill="#fff"/>
      <path id="Tracé_2432" data-name="Tracé 2432" d="M147.493,0h-34.05l51.322,98.893L181.79,131.7l17.025-32.805L181.79,66.087Z" transform="translate(2.785 0)" fill="#fff"/>
      <path id="Tracé_2433" data-name="Tracé 2433" d="M270.4,0,247.89,43.382l17.025,32.805L304.453,0Z" transform="translate(6.086 0)" fill="#fff"/>
    </g>
  </g>
</svg>
